<?xml version="1.0" encoding="UTF-8"?>
<svg width="16px" height="16px" viewBox="0 0 16 16" version="1.1" xmlns="http://www.w3.org/2000/svg" xmlns:xlink="http://www.w3.org/1999/xlink">
    <!-- Generator: sketchtool 49.3 (51167) - http://www.bohemiancoding.com/sketch -->
    <title>15B676AA-55AF-46FD-B6B0-314BA8C60132</title>
    <desc>Created with sketchtool.</desc>
    <defs></defs>
    <g id="Page-1" stroke="none" stroke-width="1" fill="none" fill-rule="evenodd">
        <g id="01_Vendors" transform="translate(-954.000000, -152.000000)" fill="#8F9CAA" fill-rule="nonzero">
            <g id="Group-9" transform="translate(659.000000, 140.000000)">
                <g id="magnifying-glass" transform="translate(295.000000, 12.000000)">
                    <g id="Search">
                        <path d="M15.8580931,15.1840355 L11.9698448,11.2957871 C13.0128603,10.0966741 13.6443459,8.53215078 13.6443459,6.82217295 C13.6443459,3.05809313 10.5827051,0 6.82217295,0 C3.05809313,0 0,3.0616408 0,6.82217295 C0,10.5827051 3.0616408,13.6443459 6.82217295,13.6443459 C8.53215078,13.6443459 10.0966741,13.0128603 11.2957871,11.9698448 L15.1840355,15.8580931 C15.2762749,15.9503326 15.4004435,16 15.5210643,16 C15.6416851,16 15.7658537,15.9538803 15.8580931,15.8580931 C16.0425721,15.6736142 16.0425721,15.3685144 15.8580931,15.1840355 Z M0.954323725,6.82217295 C0.954323725,3.58669623 3.58669623,0.957871397 6.81862528,0.957871397 C10.054102,0.957871397 12.6829268,3.5902439 12.6829268,6.82217295 C12.6829268,10.054102 10.054102,12.6900222 6.81862528,12.6900222 C3.58669623,12.6900222 0.954323725,10.0576497 0.954323725,6.82217295 Z"></path>
                    </g>
                </g>
            </g>
        </g>
    </g>
</svg>